<svg width="23" height="11" viewBox="0 0 23 11" fill="none" xmlns="http://www.w3.org/2000/svg">
<path d="M0.506265 0.420639C0.830525 0.151304 1.27026 0 1.72876 0C2.18726 0 2.62699 0.151304 2.95125 0.420639L11.5104 7.53217L20.0696 0.420639C20.3957 0.158937 20.8325 0.0141279 21.2859 0.0174012C21.7393 0.0206745 22.173 0.171768 22.4936 0.438139C22.8141 0.70451 22.996 1.06485 22.9999 1.44154C23.0039 1.81823 22.8296 2.18114 22.5146 2.4521L12.7329 10.5794C12.4087 10.8487 11.9689 11 11.5104 11C11.0519 11 10.6122 10.8487 10.2879 10.5794L0.506265 2.4521C0.182104 2.18268 0 1.81732 0 1.43637C0 1.05541 0.182104 0.690055 0.506265 0.420639V0.420639Z" fill="#0FB600"/>
</svg>
